<mxfile host="app.diagrams.net" modified="2024-03-28T08:46:50.096Z" agent="Mozilla/5.0 (Macintosh; Intel Mac OS X 10_15_7) AppleWebKit/537.36 (KHTML, like Gecko) Chrome/123.0.0.0 Safari/537.36" version="24.0.2" etag="PukBP72F_t6-sYlvaCRM" type="github">
  <diagram name="Page-1" id="N9TsgrRbcdYt5cbR8ztH">
    <mxGraphModel>
      <root>
        <mxCell id="0" />
        <mxCell id="1" parent="0" />
      </root>
    </mxGraphModel>
  </diagram>
</mxfile>
